<svg width="500" height="500" viewBox="0 0 500 500" fill="none" xmlns="http://www.w3.org/2000/svg">
<path d="M381.629 155.539L251.43 25L216.271 60.2509L347.019 191.34C372.839 217.228 386.573 251.377 386.573 288.28C386.573 364.29 325.045 425.979 249.233 425.979C173.421 425.979 111.893 364.29 111.893 288.28C111.893 251.377 126.176 217.228 151.996 190.789L182.76 159.945L214.623 191.891L183.859 222.736C166.28 240.361 156.941 263.494 156.941 287.73C156.941 338.403 198.142 379.712 248.684 379.712C299.225 379.712 340.427 338.403 340.427 287.73C340.427 262.944 331.088 239.81 313.508 222.736L278.349 257.987C286.589 266.248 290.984 276.714 290.984 288.28C290.984 311.965 271.757 330.692 248.684 330.692C225.061 330.692 206.383 311.414 206.383 288.28C206.383 276.714 210.778 266.248 219.018 257.987L284.941 191.891L183.859 89.4431L117.936 155.539C82.7769 190.789 63 238.158 63 287.73C63 390.728 147.052 475 249.782 475C352.513 475 436.565 390.728 436.565 287.73C436.565 238.158 417.337 191.34 381.629 155.539Z" fill="#2563EB"/>
</svg>
