<svg version="1.1" id="Layer_1"
    xmlns="http://www.w3.org/2000/svg"
    xmlns:xlink="http://www.w3.org/1999/xlink" x="0px" y="0px" viewBox="0 0 98 98">
    <style type="text/css">
	.st0{fill-rule:evenodd;clip-rule:evenodd;}
    </style>
    <g id="original-horizontal">
        <g>
            <path id="Path_3_" class="st0" d="M78.2,19.5c-0.4-0.4-0.6-0.8-0.6-1.3s0.2-0.9,0.6-1.3c0.8-0.7,2-0.7,2.8,0
			c0.4,0.4,0.6,0.8,0.6,1.3s-0.2,0.9-0.6,1.3c-0.4,0.3-0.9,0.5-1.4,0.5C79.1,20.1,78.6,19.9,78.2,19.5"></path>
            <path class="st0" d="M73.3,24.7c-0.3-0.4-0.5-0.8-0.5-1.3s0.2-0.9,0.5-1.3c0.7-0.7,1.9-0.7,2.6,0c0.3,0.4,0.5,0.8,0.5,1.3
			s-0.2,0.9-0.5,1.3c-0.4,0.3-0.8,0.5-1.3,0.5S73.7,25,73.3,24.7"></path>
            <path class="st0" d="M68,29.8c-0.3-0.3-0.5-0.8-0.5-1.3s0.2-0.9,0.5-1.3c0.7-0.7,1.9-0.7,2.6,0c0.3,0.3,0.5,0.8,0.5,1.3
			s-0.2,0.9-0.5,1.3c-0.4,0.4-0.8,0.5-1.3,0.5S68.3,30.1,68,29.8"></path>
            <path class="st0" d="M62.9,34.9c-0.4-0.3-0.6-0.8-0.6-1.3s0.2-0.9,0.6-1.3c0.8-0.7,2-0.7,2.8,0c0.4,0.3,0.6,0.8,0.6,1.3
			s-0.2,1-0.6,1.3c-0.4,0.4-0.9,0.5-1.4,0.5S63.3,35.3,62.9,34.9"></path>
            <path class="st0" d="M58,40c-0.4-0.3-0.5-0.8-0.5-1.3s0.2-0.9,0.5-1.3c0.7-0.7,1.9-0.7,2.6,0c0.4,0.3,0.5,0.8,0.5,1.3
			s-0.2,1-0.5,1.3c-0.3,0.4-0.8,0.5-1.3,0.5C58.8,40.6,58.3,40.4,58,40"></path>
            <path class="st0" d="M52.1,43.8c0-0.5,0.2-0.9,0.5-1.3c0.7-0.7,1.9-0.7,2.6,0c0.4,0.4,0.5,0.8,0.5,1.3s-0.2,0.9-0.5,1.3
			c-0.3,0.3-0.8,0.5-1.3,0.5s-0.9-0.2-1.3-0.5C52.3,44.8,52.1,44.3,52.1,43.8z"></path>
            <path class="st0" d="M42.6,55.1c-0.3-0.3-0.5-0.8-0.5-1.3s0.2-0.9,0.5-1.3c0.7-0.7,1.9-0.7,2.6,0c0.4,0.4,0.5,0.8,0.5,1.3
			s-0.2,0.9-0.5,1.3c-0.3,0.4-0.8,0.5-1.3,0.5C43.4,55.7,43,55.5,42.6,55.1"></path>
            <path class="st0" d="M37.3,60.2c-0.4-0.3-0.6-0.8-0.6-1.3s0.2-0.9,0.6-1.3c0.8-0.7,2-0.7,2.8,0c0.4,0.4,0.6,0.8,0.6,1.3
			s-0.2,0.9-0.6,1.3c-0.4,0.4-0.9,0.5-1.4,0.5C38.2,60.8,37.7,60.6,37.3,60.2"></path>
            <path class="st0" d="M32.4,65.4c-0.3-0.3-0.5-0.8-0.5-1.3c0-0.5,0.2-1,0.5-1.3c0.7-0.7,1.9-0.7,2.6,0c0.3,0.3,0.5,0.8,0.5,1.3
			c0,0.5-0.2,0.9-0.5,1.3c-0.4,0.4-0.8,0.5-1.3,0.5S32.8,65.7,32.4,65.4"></path>
            <path class="st0" d="M27.3,70.5c-0.4-0.3-0.5-0.8-0.5-1.3s0.2-0.9,0.5-1.3c0.7-0.7,1.9-0.7,2.6,0c0.3,0.4,0.5,0.8,0.5,1.3
			s-0.2,1-0.5,1.3c-0.4,0.4-0.8,0.5-1.3,0.5S27.6,70.9,27.3,70.5"></path>
            <path class="st0" d="M22,75.6c-0.4-0.3-0.6-0.8-0.6-1.3s0.2-0.9,0.6-1.3c0.8-0.7,2-0.7,2.7,0c0.4,0.4,0.6,0.8,0.6,1.3
			s-0.2,1-0.6,1.3c-0.4,0.3-0.9,0.5-1.4,0.5S22.3,76,22,75.6"></path>
            <path class="st0" d="M17,80.7c-0.4-0.4-0.5-0.8-0.5-1.3s0.2-0.9,0.5-1.3c0.7-0.7,1.9-0.7,2.6,0c0.4,0.4,0.5,0.8,0.5,1.3
			s-0.2,0.9-0.5,1.3c-0.3,0.3-0.8,0.5-1.3,0.5C17.9,81.3,17.4,81.1,17,80.7"></path>
            <path class="st0" d="M19.6,19.5c0.3-0.4,0.5-0.8,0.5-1.3s-0.2-0.9-0.5-1.3c-0.7-0.7-1.9-0.7-2.6,0c-0.4,0.4-0.5,0.8-0.5,1.3
			s0.2,0.9,0.5,1.3c0.3,0.3,0.8,0.5,1.3,0.5C18.8,20.1,19.3,19.9,19.6,19.5"></path>
            <path class="st0" d="M24.7,24.7c0.4-0.4,0.6-0.8,0.6-1.3s-0.2-0.9-0.6-1.3c-0.8-0.7-2-0.7-2.8,0c-0.4,0.4-0.6,0.8-0.6,1.3
			s0.2,0.9,0.6,1.3c0.4,0.3,0.9,0.5,1.4,0.5S24.3,25,24.7,24.7"></path>
            <path class="st0" d="M29.9,29.8c0.3-0.3,0.5-0.8,0.5-1.3s-0.2-0.9-0.5-1.3c-0.7-0.7-1.9-0.7-2.6,0c-0.3,0.3-0.5,0.8-0.5,1.3
			s0.2,0.9,0.5,1.3c0.4,0.4,0.8,0.5,1.3,0.5C29,30.3,29.5,30.1,29.9,29.8"></path>
            <path class="st0" d="M35,34.9c0.3-0.3,0.5-0.8,0.5-1.3s-0.2-0.9-0.5-1.3c-0.7-0.7-1.9-0.7-2.6,0c-0.3,0.3-0.5,0.8-0.5,1.3
			s0.2,1,0.5,1.3c0.4,0.4,0.8,0.5,1.3,0.5C34.1,35.4,34.6,35.3,35,34.9"></path>
            <path class="st0" d="M40,40c0.4-0.3,0.6-0.8,0.6-1.3s-0.2-0.9-0.6-1.3c-0.7-0.7-2-0.7-2.7,0c-0.4,0.3-0.6,0.8-0.6,1.3
			s0.2,1,0.6,1.3c0.4,0.4,0.9,0.5,1.4,0.5C39.2,40.6,39.7,40.4,40,40"></path>
            <path class="st0" d="M45.7,43.8c0-0.5-0.2-0.9-0.5-1.3c-0.7-0.7-1.9-0.7-2.6,0c-0.4,0.4-0.5,0.8-0.5,1.3s0.2,0.9,0.5,1.3
			c0.3,0.3,0.8,0.5,1.3,0.5s0.9-0.2,1.3-0.5S45.7,44.3,45.7,43.8z"></path>
            <path class="st0" d="M50.3,50.3c0.4-0.4,0.5-0.8,0.5-1.3s-0.2-0.9-0.5-1.3c-0.7-0.7-1.9-0.7-2.6,0c-0.4,0.4-0.5,0.8-0.5,1.3
			s0.2,0.9,0.5,1.3c0.3,0.3,0.8,0.5,1.3,0.5S50,50.6,50.3,50.3"></path>
            <path class="st0" d="M55.4,55.1c0.4-0.3,0.6-0.8,0.6-1.3s-0.2-0.9-0.6-1.3c-0.8-0.7-2-0.7-2.7,0c-0.4,0.4-0.6,0.8-0.6,1.3
			s0.2,0.9,0.6,1.3c0.4,0.4,0.9,0.5,1.4,0.5C54.5,55.7,55,55.5,55.4,55.1"></path>
            <path class="st0" d="M60.6,60.2c0.3-0.3,0.5-0.8,0.5-1.3s-0.2-0.9-0.5-1.3c-0.7-0.7-1.9-0.7-2.6,0c-0.3,0.4-0.5,0.8-0.5,1.3
			s0.2,0.9,0.5,1.3c0.4,0.4,0.8,0.5,1.3,0.5C59.7,60.8,60.2,60.6,60.6,60.2"></path>
            <path class="st0" d="M65.7,65.4c0.3-0.3,0.5-0.8,0.5-1.3c0-0.5-0.2-1-0.5-1.3c-0.7-0.7-1.9-0.7-2.6,0c-0.3,0.3-0.5,0.8-0.5,1.3
			c0,0.5,0.2,0.9,0.5,1.3c0.4,0.4,0.8,0.5,1.3,0.5C64.9,65.9,65.3,65.7,65.7,65.4"></path>
            <path class="st0" d="M70.5,70.5c0.4-0.3,0.5-0.8,0.5-1.3s-0.2-0.9-0.5-1.3c-0.7-0.7-1.9-0.7-2.6,0c-0.3,0.4-0.5,0.8-0.5,1.3
			s0.2,1,0.5,1.3c0.4,0.4,0.8,0.5,1.3,0.5S70.2,70.9,70.5,70.5"></path>
            <path class="st0" d="M75.9,75.6c0.4-0.3,0.5-0.8,0.5-1.3s-0.2-0.9-0.5-1.3c-0.7-0.7-1.9-0.7-2.6,0c-0.4,0.4-0.5,0.8-0.5,1.3
			s0.2,1,0.5,1.3c0.3,0.3,0.8,0.5,1.3,0.5S75.6,76,75.9,75.6"></path>
            <path class="st0" d="M81,80.7c0.4-0.4,0.6-0.8,0.6-1.3s-0.2-0.9-0.6-1.3c-0.8-0.7-2-0.7-2.7,0c-0.4,0.4-0.6,0.8-0.6,1.3
			s0.2,0.9,0.6,1.3c0.4,0.3,0.9,0.5,1.4,0.5C80.1,81.3,80.6,81.1,81,80.7"></path>
            <path id="Fill-9_1_" class="st0" d="M31.7,20.9c5.2-3.4,10.9-5,17.2-5.1c6.2,0,11.9,1.7,17.2,5.1l11-11
			c-8.6-6.5-17.9-9.8-28.2-9.8S29.2,3.4,20.8,9.9L31.7,20.9z"></path>
            <path id="Fill-10_1_" class="st0" d="M20.7,66c-3.5-5.3-5.2-11-5.2-17.1c0-6.2,1.7-11.9,5.2-17.1L9.8,20.9
			C3.4,29.3,0.2,38.6,0.2,49c0,10.2,3.2,19.6,9.7,28.1L20.7,66z"></path>
            <path id="Fill-11_1_" class="st0" d="M66.1,76.9c-5.2,3.5-10.9,5.3-17.1,5.4c-6.3,0-12.1-1.7-17.3-5.3l-11,10.9
			c8.5,6.6,17.9,9.9,28.3,9.8c10.3-0.1,19.6-3.4,28-9.8L66.1,76.9z"></path>
            <path id="Fill-12_1_" class="st0" d="M76.8,31.7c3.5,5.3,5.3,11.1,5.2,17.4c-0.1,6.1-1.8,11.7-5.2,16.8l11,10.9
			c6.5-8.4,9.8-17.7,9.8-27.9c0.1-10.4-3.2-19.8-9.8-28.3L76.8,31.7z"></path>
            <path id="Fill-15_1_" class="st0" d="M88.3,80.3c4.2,0,7.7,3.4,7.7,7.7c0,4.2-3.4,7.7-7.7,7.7c-4.2,0-7.7-3.4-7.7-7.7
			S84,80.3,88.3,80.3"></path>
            <path id="Fill-16_1_" class="st0" d="M9.7,80.3c4.2,0,7.6,3.4,7.6,7.7c0,4.2-3.4,7.7-7.6,7.7S2.1,92.3,2.1,88S5.5,80.3,9.7,80.3"></path>
            <path id="Fill-17_1_" class="st0" d="M88.4,1.8c4.2,0,7.6,3.4,7.6,7.7s-3.4,7.7-7.6,7.7c-4.2,0-7.6-3.4-7.6-7.7S84.2,1.8,88.4,1.8
			">            </path>
            <path id="Fill-18_1_" class="st0" d="M9.6,1.8c4.2,0,7.7,3.4,7.7,7.6S13.9,17,9.6,17c-4.2,0-7.7-3.4-7.7-7.6
			C1.9,5.2,5.3,1.8,9.6,1.8"></path>
        </g>
    </g>
</svg>
