<svg width="250" height="250" viewBox="0 0 250 250" fill="none" xmlns="http://www.w3.org/2000/svg">
<path d="M179.873 188.006C180.803 186.962 181.932 186.11 183.194 185.502C184.456 184.893 185.826 184.538 187.226 184.458L193.469 149.435C192.793 149.135 192.151 148.764 191.554 148.329L164.304 172.326C165.136 173.861 165.57 175.579 165.568 177.324C165.568 178.265 165.439 179.202 165.185 180.109L179.873 188.006ZM242.778 215.037L204.001 148.138C202.341 149.402 200.341 150.146 198.256 150.275L191.917 185.297C193.673 186.045 195.193 187.253 196.315 188.792C197.437 190.331 198.12 192.145 198.29 194.039C198.46 195.934 198.113 197.839 197.284 199.552C196.454 201.266 195.175 202.723 193.581 203.77C191.986 204.818 190.137 205.415 188.229 205.499C186.321 205.583 184.427 205.151 182.746 204.248C181.065 203.345 179.661 202.006 178.683 200.372C177.705 198.738 177.19 196.871 177.192 194.969C177.193 194.034 177.321 193.103 177.575 192.203L162.848 184.286C161.078 186.305 158.596 187.568 155.916 187.816L151.915 217.554C154.196 218.385 156.114 219.983 157.338 222.073C158.562 224.163 159.014 226.613 158.617 229H234.678C236.315 228.996 237.921 228.564 239.337 227.747C240.754 226.93 241.93 225.757 242.748 224.345C243.566 222.933 243.998 221.332 244 219.702C244.002 218.072 243.574 216.469 242.759 215.055L242.778 215.037ZM125.507 136.826C124.414 135.117 123.835 133.131 123.841 131.103C123.846 129.192 124.376 127.319 125.373 125.686L88.7983 90.415C87.6815 91.1316 86.4412 91.6359 85.1408 91.9029L82.4403 176.465C83.4155 176.732 84.3498 177.13 85.217 177.648L125.507 136.826ZM93.6431 81.5066C93.645 83.4163 93.1217 85.2901 92.13 86.9243L128.705 122.195C130.414 121.084 132.41 120.494 134.45 120.497C137.08 120.504 139.614 121.483 141.561 123.246C143.506 125.008 144.726 127.427 144.982 130.035L187.762 135.873C188.275 134.552 189.047 133.347 190.033 132.329C191.02 131.31 192.201 130.498 193.507 129.94L133.052 25.6531C132.235 24.2386 131.057 23.0638 129.638 22.247C128.219 21.4301 126.61 21 124.971 21C123.332 21 121.723 21.4301 120.304 22.247C118.885 23.0638 117.708 24.2386 116.89 25.6531L89.4106 73.0751C90.7253 74.0564 91.7923 75.3292 92.5269 76.7927C93.2614 78.2566 93.6436 79.8705 93.6431 81.5066ZM145.021 180.891L90.2342 187.682C90.1561 188.4 90.0083 189.109 89.7938 189.799L140.578 220.015C142.324 218.197 144.67 217.066 147.184 216.829L151.206 187.091C149.795 186.57 148.513 185.754 147.446 184.698C146.379 183.641 145.552 182.37 145.021 180.967V180.891ZM134.469 141.652C132.53 141.65 130.628 141.116 128.973 140.107L88.7599 181.005C89.1677 181.64 89.5016 182.318 89.7554 183.027L144.542 176.237C144.699 174.799 145.15 173.409 145.868 172.152C146.587 170.896 147.556 169.799 148.716 168.931L136.538 141.462C135.856 141.589 135.163 141.653 134.469 141.652ZM87.3235 194.053C86.1713 195.24 84.7548 196.141 83.1886 196.682C81.6224 197.223 79.9507 197.39 78.3078 197.168C76.6649 196.947 75.0978 196.344 73.732 195.408C72.3666 194.472 71.2409 193.229 70.4466 191.779C69.6524 190.33 69.2115 188.715 69.1594 187.065C69.1073 185.414 69.4455 183.774 70.1469 182.278C70.8483 180.782 71.8935 179.471 73.1973 178.452C74.5011 177.432 76.0274 176.732 77.6533 176.408L80.3532 91.8458C79.8806 91.7269 79.4193 91.5675 78.9746 91.3689L7.24082 215.037C6.42624 216.45 5.99811 218.052 6.00001 219.683C6.0019 221.313 6.43335 222.914 7.25171 224.326C8.07008 225.738 9.246 226.911 10.6625 227.728C12.0785 228.545 13.6854 228.977 15.3222 228.981H137.744C137.66 228.464 137.615 227.94 137.61 227.417C137.606 226.321 137.78 225.232 138.127 224.193L87.3235 194.053ZM154.94 166.889C157.133 166.872 159.276 167.539 161.068 168.797L188.318 144.8C187.636 143.549 187.219 142.173 187.092 140.756L144.312 134.919C143.584 136.765 142.358 138.376 140.77 139.573L152.968 167.023C153.617 166.888 154.277 166.812 154.94 166.794V166.889Z" fill="black"/>
</svg>
